<?xml version="1.0" standalone="no"?>
<!DOCTYPE svg PUBLIC "-//W3C//DTD SVG 20010904//EN"
 "http://www.w3.org/TR/2001/REC-SVG-20010904/DTD/svg10.dtd">
<svg version="1.0" xmlns="http://www.w3.org/2000/svg"
 width="142.000000pt" height="142.000000pt" viewBox="0 0 142.000000 142.000000"
 preserveAspectRatio="xMidYMid meet">
<metadata>
Created by potrace 1.14, written by Peter Selinger 2001-2017
</metadata>
<g transform="translate(0.000000,142.000000) scale(0.100000,-0.100000)"
fill="#000000" stroke="none">
<path d="M1117 1055 c-85 -32 -144 -105 -192 -241 -51 -141 -83 -177 -124
-140 -10 9 -35 73 -56 141 -43 140 -60 165 -110 165 -50 0 -78 -31 -141 -155
-99 -195 -115 -194 -164 11 -28 112 -58 175 -93 192 -24 12 -33 11 -65 -5 -48
-23 -91 -88 -136 -205 -42 -107 -43 -118 -16 -118 20 0 39 32 75 132 34 93 86
114 116 48 9 -19 24 -69 34 -110 43 -182 114 -245 187 -167 17 17 58 87 91
155 50 104 62 123 80 120 21 -3 21 -3 67 -155 12 -39 36 -88 53 -108 29 -35
33 -37 79 -33 39 4 54 11 78 38 l30 34 0 -31 c0 -71 61 -261 107 -336 27 -43
43 -52 77 -43 37 9 36 37 -2 102 -66 112 -103 235 -104 344 -1 188 61 290 180
293 90 3 134 -53 135 -174 1 -121 -51 -175 -170 -178 -55 -2 -71 -71 -20 -87
87 -29 206 48 254 164 25 61 29 168 9 230 -37 111 -143 159 -259 117z"/>
</g>
</svg>
