<?xml version="1.0" standalone="no"?>
<!DOCTYPE svg PUBLIC "-//W3C//DTD SVG 20010904//EN"
 "http://www.w3.org/TR/2001/REC-SVG-20010904/DTD/svg10.dtd">
<svg version="1.0" xmlns="http://www.w3.org/2000/svg"
 width="104.000000pt" height="104.000000pt" viewBox="0 0 104.000000 104.000000"
 preserveAspectRatio="xMidYMid meet">
<metadata>
Created by potrace 1.14, written by Peter Selinger 2001-2017
</metadata>
<g transform="translate(0.000000,104.000000) scale(0.100000,-0.100000)"
fill="#000000" stroke="none">
<path d="M222 999 c-118 -59 -131 -215 -25 -296 31 -24 46 -28 97 -28 34 0 74
4 89 9 21 6 27 5 25 -5 -2 -8 3 -13 10 -11 17 3 56 10 62 11 13 2 1 210 -13
238 -49 93 -152 128 -245 82z m161 -89 c75 -84 -22 -204 -126 -155 -20 9 -42
30 -51 48 -15 30 -15 33 6 50 22 18 76 19 121 2 28 -11 20 11 -18 48 -19 19
-32 37 -27 41 14 15 68 -5 95 -34z"/>
<path d="M517 943 c-4 -3 -7 -70 -7 -148 l0 -142 -48 -7 c-196 -26 -225 -304
-38 -357 49 -13 129 -6 162 16 28 18 28 18 12 48 -7 12 -13 23 -14 25 0 1 -19
-4 -42 -12 -89 -32 -164 14 -166 99 -1 35 4 50 25 70 31 32 98 50 105 30 10
-26 -24 -72 -66 -89 -22 -9 -40 -21 -40 -28 1 -25 27 -48 54 -48 37 0 120 83
129 129 4 18 7 121 7 227 l0 194 -33 0 c-19 0 -37 -3 -40 -7z"/>
<path d="M619 928 c-8 -132 2 -193 38 -230 70 -73 194 -55 237 36 11 24 16 62
16 125 l0 90 -37 -2 -38 -2 -1 -70 c-2 -103 -2 -103 -24 -125 -26 -26 -72 -26
-96 1 -14 15 -19 38 -21 83 -1 33 -2 73 -2 89 -1 24 -5 27 -36 27 -29 0 -35
-4 -36 -22z"/>
<path d="M865 659 c-4 -5 -18 -14 -31 -19 l-24 -10 0 -175 0 -175 38 0 39 0
-2 135 c-1 86 3 136 9 138 6 2 26 3 44 1 30 -2 32 -1 32 32 0 20 -5 35 -12 35
-7 1 -20 3 -28 4 -8 1 -23 3 -32 4 -11 1 -16 8 -13 21 4 21 -9 27 -20 9z"/>
<path d="M207 635 c-47 -16 -83 -48 -107 -95 -14 -28 -18 -61 -19 -148 l-1
-112 41 0 c38 0 40 2 39 28 -6 82 -6 82 61 82 l62 0 -7 31 c-3 17 -6 35 -6 39
0 4 -23 6 -50 5 -28 -1 -53 2 -56 7 -11 17 19 69 49 84 16 9 44 16 61 16 22 0
38 9 54 29 l23 29 -26 10 c-35 13 -72 12 -118 -5z"/>
<path d="M736 618 c-81 -18 -139 -87 -139 -167 0 -48 15 -82 70 -162 61 -88
47 -165 -35 -190 -35 -10 -39 -14 -39 -45 0 -29 4 -34 24 -34 58 0 146 72 159
128 3 15 7 33 10 40 6 22 -22 89 -67 159 -67 102 -58 160 31 202 28 13 35 22
35 44 1 35 -1 36 -49 25z"/>
</g>
</svg>
